<?xml version="1.0" encoding="UTF-8" standalone="no"?>
<svg xmlns="http://www.w3.org/2000/svg" xmlns:xlink="http://www.w3.org/1999/xlink" xmlns:serif="http://www.serif.com/" width="100%" height="100%" viewBox="0 0 220 38" version="1.1" xml:space="preserve" style="fill-rule:evenodd;clip-rule:evenodd;stroke-linejoin:round;stroke-miterlimit:1.41421;">
    <g transform="matrix(1,0,0,1,-249.948,-106.533)">
        <g transform="matrix(1.69027,0,0,0.542055,-0.461686,64.4792)">
            <rect x="148.147" y="77.583" width="130.015" height="69.978" style="fill:none;"></rect>
            <g transform="matrix(0.943745,0,0,2.94285,-1.78674,-465.415)">
                <path d="M184.357,192.094C184.357,191.998 184.405,191.918 184.501,191.854C184.597,191.79 184.701,191.758 184.813,191.758C184.989,191.758 185.093,191.826 185.125,191.962L187.345,199.33L189.553,191.962C189.601,191.826 189.701,191.758 189.853,191.758C189.965,191.758 190.073,191.792 190.177,191.86C190.281,191.928 190.333,192.01 190.333,192.106C190.333,192.114 190.331,192.126 190.327,192.142C190.323,192.158 190.321,192.17 190.321,192.178L187.825,200.314C187.769,200.506 187.609,200.602 187.345,200.602C187.089,200.602 186.933,200.506 186.877,200.314L184.369,192.178C184.361,192.162 184.357,192.134 184.357,192.094Z" style="fill:rgb(0,14,32);fill-rule:nonzero;stroke:rgb(0,14,32);stroke-width:0.19px;"></path>
                <path d="M191.329,193.03C191.225,192.926 191.173,192.806 191.173,192.67C191.173,192.534 191.225,192.418 191.329,192.322C191.433,192.226 191.561,192.178 191.713,192.178C191.857,192.178 191.979,192.226 192.079,192.322C192.179,192.418 192.229,192.534 192.229,192.67C192.229,192.806 192.179,192.924 192.079,193.024C191.979,193.124 191.857,193.174 191.713,193.174C191.561,193.174 191.433,193.126 191.329,193.03ZM191.329,200.218L191.329,195.142C191.329,195.062 191.365,194.994 191.437,194.938C191.509,194.882 191.601,194.854 191.713,194.854C191.825,194.854 191.919,194.882 191.995,194.938C192.071,194.994 192.109,195.062 192.109,195.142L192.109,200.218C192.109,200.298 192.069,200.37 191.989,200.434C191.909,200.498 191.817,200.53 191.713,200.53C191.609,200.53 191.519,200.498 191.443,200.434C191.367,200.37 191.329,200.298 191.329,200.218Z" style="fill:rgb(0,14,32);fill-rule:nonzero;stroke:rgb(0,14,32);stroke-width:0.19px;"></path>
                <path d="M193.417,198.334L193.417,197.05C193.417,196.378 193.613,195.832 194.005,195.412C194.397,194.992 194.973,194.782 195.733,194.782C196.213,194.782 196.615,194.868 196.939,195.04C197.263,195.212 197.425,195.386 197.425,195.562C197.425,195.65 197.389,195.736 197.317,195.82C197.245,195.904 197.165,195.946 197.077,195.946C197.029,195.946 196.955,195.91 196.855,195.838C196.755,195.766 196.613,195.692 196.429,195.616C196.245,195.54 196.025,195.502 195.769,195.502C195.257,195.502 194.867,195.638 194.599,195.91C194.331,196.182 194.197,196.562 194.197,197.05L194.197,198.334C194.197,198.83 194.331,199.214 194.599,199.486C194.867,199.758 195.261,199.894 195.781,199.894C196.053,199.894 196.283,199.856 196.471,199.78C196.659,199.704 196.803,199.628 196.903,199.552C197.003,199.476 197.081,199.438 197.137,199.438C197.241,199.438 197.327,199.478 197.395,199.558C197.463,199.638 197.497,199.726 197.497,199.822C197.497,200.006 197.329,200.184 196.993,200.356C196.657,200.528 196.241,200.614 195.745,200.614C194.977,200.614 194.397,200.406 194.005,199.99C193.613,199.574 193.417,199.022 193.417,198.334Z" style="fill:rgb(0,14,32);fill-rule:nonzero;stroke:rgb(0,14,32);stroke-width:0.19px;"></path>
                <path d="M198.529,198.766L198.529,192.442C198.529,192.362 198.569,192.294 198.649,192.238C198.729,192.182 198.817,192.154 198.913,192.154C199.017,192.154 199.109,192.182 199.189,192.238C199.269,192.294 199.309,192.362 199.309,192.442L199.309,194.854L200.857,194.854C200.937,194.854 201.003,194.886 201.055,194.95C201.107,195.014 201.133,195.09 201.133,195.178C201.133,195.266 201.107,195.342 201.055,195.406C201.003,195.47 200.937,195.502 200.857,195.502L199.309,195.502L199.309,198.766C199.309,199.158 199.391,199.432 199.555,199.588C199.719,199.744 200.009,199.822 200.425,199.822L200.761,199.822C200.865,199.822 200.951,199.856 201.019,199.924C201.087,199.992 201.121,200.074 201.121,200.17C201.121,200.266 201.087,200.35 201.019,200.422C200.951,200.494 200.865,200.53 200.761,200.53L200.425,200.53C199.161,200.53 198.529,199.942 198.529,198.766Z" style="fill:rgb(0,14,32);fill-rule:nonzero;stroke:rgb(0,14,32);stroke-width:0.19px;"></path>
                <path d="M201.781,198.334L201.781,197.026C201.781,196.418 202.005,195.892 202.453,195.448C202.901,195.004 203.433,194.782 204.049,194.782C204.665,194.782 205.201,195.002 205.657,195.442C206.113,195.882 206.341,196.41 206.341,197.026L206.341,198.334C206.341,198.934 206.111,199.464 205.651,199.924C205.191,200.384 204.657,200.614 204.049,200.614C203.449,200.614 202.921,200.384 202.465,199.924C202.009,199.464 201.781,198.934 201.781,198.334ZM202.561,198.334C202.561,198.742 202.707,199.104 202.999,199.42C203.291,199.736 203.641,199.894 204.049,199.894C204.465,199.894 204.821,199.736 205.117,199.42C205.413,199.104 205.561,198.742 205.561,198.334L205.561,197.026C205.561,196.634 205.411,196.282 205.111,195.97C204.811,195.658 204.457,195.502 204.049,195.502C203.641,195.502 203.291,195.658 202.999,195.97C202.707,196.282 202.561,196.634 202.561,197.026L202.561,198.334Z" style="fill:rgb(0,14,32);fill-rule:nonzero;stroke:rgb(0,14,32);stroke-width:0.19px;"></path>
                <path d="M207.625,200.218L207.625,195.142C207.625,195.062 207.661,194.994 207.733,194.938C207.805,194.882 207.897,194.854 208.009,194.854C208.113,194.854 208.201,194.882 208.273,194.938C208.345,194.994 208.381,195.062 208.381,195.142L208.381,195.73C208.525,195.466 208.737,195.242 209.017,195.058C209.297,194.874 209.621,194.782 209.989,194.782L210.409,194.782C210.489,194.782 210.561,194.818 210.625,194.89C210.689,194.962 210.721,195.046 210.721,195.142C210.721,195.238 210.689,195.322 210.625,195.394C210.561,195.466 210.489,195.502 210.409,195.502L209.989,195.502C209.573,195.502 209.205,195.664 208.885,195.988C208.565,196.312 208.405,196.734 208.405,197.254L208.405,200.218C208.405,200.298 208.367,200.37 208.291,200.434C208.215,200.498 208.121,200.53 208.009,200.53C207.905,200.53 207.815,200.498 207.739,200.434C207.663,200.37 207.625,200.298 207.625,200.218Z" style="fill:rgb(0,14,32);fill-rule:nonzero;stroke:rgb(0,14,32);stroke-width:0.19px;"></path>
                <path d="M211.597,193.03C211.493,192.926 211.441,192.806 211.441,192.67C211.441,192.534 211.493,192.418 211.597,192.322C211.701,192.226 211.829,192.178 211.981,192.178C212.125,192.178 212.247,192.226 212.347,192.322C212.447,192.418 212.497,192.534 212.497,192.67C212.497,192.806 212.447,192.924 212.347,193.024C212.247,193.124 212.125,193.174 211.981,193.174C211.829,193.174 211.701,193.126 211.597,193.03ZM211.597,200.218L211.597,195.142C211.597,195.062 211.633,194.994 211.705,194.938C211.777,194.882 211.869,194.854 211.981,194.854C212.093,194.854 212.187,194.882 212.263,194.938C212.339,194.994 212.377,195.062 212.377,195.142L212.377,200.218C212.377,200.298 212.337,200.37 212.257,200.434C212.177,200.498 212.085,200.53 211.981,200.53C211.877,200.53 211.787,200.498 211.711,200.434C211.635,200.37 211.597,200.298 211.597,200.218Z" style="fill:rgb(0,14,32);fill-rule:nonzero;stroke:rgb(0,14,32);stroke-width:0.19px;"></path>
                <path d="M213.493,199.03C213.493,198.414 213.731,197.986 214.207,197.746C214.683,197.506 215.377,197.386 216.289,197.386L216.901,197.386L216.901,197.098C216.901,196.658 216.785,196.276 216.553,195.952C216.321,195.628 215.965,195.466 215.485,195.466C215.165,195.466 214.875,195.524 214.615,195.64C214.355,195.756 214.217,195.814 214.201,195.814C214.105,195.814 214.029,195.77 213.973,195.682C213.917,195.594 213.889,195.498 213.889,195.394C213.889,195.242 214.061,195.102 214.405,194.974C214.749,194.846 215.117,194.782 215.509,194.782C216.261,194.782 216.811,195 217.159,195.436C217.507,195.872 217.681,196.426 217.681,197.098L217.681,200.218C217.681,200.306 217.645,200.38 217.573,200.44C217.501,200.5 217.409,200.53 217.297,200.53C217.193,200.53 217.107,200.5 217.039,200.44C216.971,200.38 216.937,200.306 216.937,200.218L216.937,199.69C216.401,200.306 215.797,200.614 215.125,200.614C214.645,200.614 214.253,200.48 213.949,200.212C213.645,199.944 213.493,199.55 213.493,199.03ZM214.273,198.958C214.273,199.294 214.369,199.544 214.561,199.708C214.753,199.872 215.005,199.954 215.317,199.954C215.693,199.954 216.051,199.814 216.391,199.534C216.731,199.254 216.901,198.974 216.901,198.694L216.901,197.926L216.397,197.926C216.077,197.926 215.807,197.938 215.587,197.962C215.367,197.986 215.149,198.03 214.933,198.094C214.717,198.158 214.553,198.262 214.441,198.406C214.329,198.55 214.273,198.734 214.273,198.958Z" style="fill:rgb(0,14,32);fill-rule:nonzero;stroke:rgb(0,14,32);stroke-width:0.19px;"></path>
                <path d="M221.605,198.034L221.605,194.314C221.605,193.442 221.839,192.798 222.307,192.382C222.775,191.966 223.381,191.758 224.125,191.758C224.885,191.758 225.487,191.952 225.931,192.34C226.375,192.728 226.597,193.202 226.597,193.762C226.597,193.954 226.567,194.082 226.507,194.146C226.447,194.21 226.345,194.242 226.201,194.242C225.953,194.242 225.821,194.142 225.805,193.942C225.797,193.822 225.781,193.706 225.757,193.594C225.733,193.482 225.685,193.356 225.613,193.216C225.541,193.076 225.447,192.954 225.331,192.85C225.215,192.746 225.053,192.66 224.845,192.592C224.637,192.524 224.397,192.49 224.125,192.49C222.973,192.49 222.397,193.098 222.397,194.314L222.397,198.034C222.397,199.258 222.989,199.87 224.173,199.87C224.509,199.87 224.789,199.824 225.013,199.732C225.237,199.64 225.401,199.506 225.505,199.33C225.609,199.154 225.679,199.004 225.715,198.88C225.751,198.756 225.781,198.594 225.805,198.394C225.829,198.186 225.961,198.082 226.201,198.082C226.345,198.082 226.447,198.116 226.507,198.184C226.567,198.252 226.597,198.382 226.597,198.574C226.597,199.142 226.371,199.622 225.919,200.014C225.467,200.406 224.857,200.602 224.089,200.602C223.353,200.602 222.755,200.394 222.295,199.978C221.835,199.562 221.605,198.914 221.605,198.034Z" style="fill:rgb(0,14,32);fill-rule:nonzero;stroke:rgb(0,14,32);stroke-width:0.19px;"></path>
                <path d="M227.821,200.218L227.821,191.662C227.821,191.582 227.857,191.514 227.929,191.458C228.001,191.402 228.093,191.374 228.205,191.374C228.317,191.374 228.411,191.402 228.487,191.458C228.563,191.514 228.601,191.582 228.601,191.662L228.601,195.694C228.737,195.438 228.943,195.222 229.219,195.046C229.495,194.87 229.817,194.782 230.185,194.782C230.761,194.782 231.259,195.002 231.679,195.442C232.099,195.882 232.309,196.41 232.309,197.026L232.309,200.218C232.309,200.314 232.271,200.39 232.195,200.446C232.119,200.502 232.025,200.53 231.913,200.53C231.817,200.53 231.729,200.502 231.649,200.446C231.569,200.39 231.529,200.314 231.529,200.218L231.529,197.026C231.529,196.634 231.381,196.282 231.085,195.97C230.789,195.658 230.441,195.502 230.041,195.502C229.665,195.502 229.331,195.642 229.039,195.922C228.747,196.202 228.601,196.57 228.601,197.026L228.601,200.218C228.601,200.298 228.561,200.37 228.481,200.434C228.401,200.498 228.309,200.53 228.205,200.53C228.101,200.53 228.011,200.498 227.935,200.434C227.859,200.37 227.821,200.298 227.821,200.218Z" style="fill:rgb(0,14,32);fill-rule:nonzero;stroke:rgb(0,14,32);stroke-width:0.19px;"></path>
                <path d="M233.773,200.218L233.773,195.142C233.773,195.062 233.809,194.994 233.881,194.938C233.953,194.882 234.045,194.854 234.157,194.854C234.261,194.854 234.349,194.882 234.421,194.938C234.493,194.994 234.529,195.062 234.529,195.142L234.529,195.73C234.673,195.466 234.885,195.242 235.165,195.058C235.445,194.874 235.769,194.782 236.137,194.782L236.557,194.782C236.637,194.782 236.709,194.818 236.773,194.89C236.837,194.962 236.869,195.046 236.869,195.142C236.869,195.238 236.837,195.322 236.773,195.394C236.709,195.466 236.637,195.502 236.557,195.502L236.137,195.502C235.721,195.502 235.353,195.664 235.033,195.988C234.713,196.312 234.553,196.734 234.553,197.254L234.553,200.218C234.553,200.298 234.515,200.37 234.439,200.434C234.363,200.498 234.269,200.53 234.157,200.53C234.053,200.53 233.963,200.498 233.887,200.434C233.811,200.37 233.773,200.298 233.773,200.218Z" style="fill:rgb(0,14,32);fill-rule:nonzero;stroke:rgb(0,14,32);stroke-width:0.19px;"></path>
                <path d="M237.745,193.03C237.641,192.926 237.589,192.806 237.589,192.67C237.589,192.534 237.641,192.418 237.745,192.322C237.849,192.226 237.977,192.178 238.129,192.178C238.273,192.178 238.395,192.226 238.495,192.322C238.595,192.418 238.645,192.534 238.645,192.67C238.645,192.806 238.595,192.924 238.495,193.024C238.395,193.124 238.273,193.174 238.129,193.174C237.977,193.174 237.849,193.126 237.745,193.03ZM237.745,200.218L237.745,195.142C237.745,195.062 237.781,194.994 237.853,194.938C237.925,194.882 238.017,194.854 238.129,194.854C238.241,194.854 238.335,194.882 238.411,194.938C238.487,194.994 238.525,195.062 238.525,195.142L238.525,200.218C238.525,200.298 238.485,200.37 238.405,200.434C238.325,200.498 238.233,200.53 238.129,200.53C238.025,200.53 237.935,200.498 237.859,200.434C237.783,200.37 237.745,200.298 237.745,200.218Z" style="fill:rgb(0,14,32);fill-rule:nonzero;stroke:rgb(0,14,32);stroke-width:0.19px;"></path>
                <path d="M239.677,199.75C239.677,199.67 239.705,199.59 239.761,199.51C239.817,199.43 239.881,199.39 239.953,199.39C240.009,199.39 240.097,199.436 240.217,199.528C240.337,199.62 240.509,199.714 240.733,199.81C240.957,199.906 241.225,199.954 241.537,199.954C241.961,199.954 242.273,199.874 242.473,199.714C242.673,199.554 242.773,199.35 242.773,199.102C242.773,198.814 242.671,198.584 242.467,198.412C242.263,198.24 242.017,198.114 241.729,198.034C241.441,197.954 241.151,197.866 240.859,197.77C240.567,197.674 240.319,197.516 240.115,197.296C239.911,197.076 239.809,196.782 239.809,196.414C239.809,195.974 239.967,195.592 240.283,195.268C240.599,194.944 241.073,194.782 241.705,194.782C242.097,194.782 242.463,194.844 242.803,194.968C243.143,195.092 243.313,195.226 243.313,195.37C243.313,195.45 243.281,195.538 243.217,195.634C243.153,195.73 243.077,195.778 242.989,195.778C242.965,195.778 242.817,195.722 242.545,195.61C242.273,195.498 241.997,195.442 241.717,195.442C241.317,195.442 241.017,195.538 240.817,195.73C240.617,195.922 240.517,196.138 240.517,196.378C240.517,196.626 240.619,196.822 240.823,196.966C241.027,197.11 241.275,197.22 241.567,197.296C241.859,197.372 242.151,197.46 242.443,197.56C242.735,197.66 242.983,197.836 243.187,198.088C243.391,198.34 243.493,198.666 243.493,199.066C243.493,199.546 243.323,199.924 242.983,200.2C242.643,200.476 242.169,200.614 241.561,200.614C241.033,200.614 240.587,200.52 240.223,200.332C239.859,200.144 239.677,199.95 239.677,199.75Z" style="fill:rgb(0,14,32);fill-rule:nonzero;stroke:rgb(0,14,32);stroke-width:0.19px;"></path>
                <path d="M244.633,198.766L244.633,192.442C244.633,192.362 244.673,192.294 244.753,192.238C244.833,192.182 244.921,192.154 245.017,192.154C245.121,192.154 245.213,192.182 245.293,192.238C245.373,192.294 245.413,192.362 245.413,192.442L245.413,194.854L246.961,194.854C247.041,194.854 247.107,194.886 247.159,194.95C247.211,195.014 247.237,195.09 247.237,195.178C247.237,195.266 247.211,195.342 247.159,195.406C247.107,195.47 247.041,195.502 246.961,195.502L245.413,195.502L245.413,198.766C245.413,199.158 245.495,199.432 245.659,199.588C245.823,199.744 246.113,199.822 246.529,199.822L246.865,199.822C246.969,199.822 247.055,199.856 247.123,199.924C247.191,199.992 247.225,200.074 247.225,200.17C247.225,200.266 247.191,200.35 247.123,200.422C247.055,200.494 246.969,200.53 246.865,200.53L246.529,200.53C245.265,200.53 244.633,199.942 244.633,198.766Z" style="fill:rgb(0,14,32);fill-rule:nonzero;stroke:rgb(0,14,32);stroke-width:0.19px;"></path>
                <path d="M247.825,199.03C247.825,198.414 248.063,197.986 248.539,197.746C249.015,197.506 249.709,197.386 250.621,197.386L251.233,197.386L251.233,197.098C251.233,196.658 251.117,196.276 250.885,195.952C250.653,195.628 250.297,195.466 249.817,195.466C249.497,195.466 249.207,195.524 248.947,195.64C248.687,195.756 248.549,195.814 248.533,195.814C248.437,195.814 248.361,195.77 248.305,195.682C248.249,195.594 248.221,195.498 248.221,195.394C248.221,195.242 248.393,195.102 248.737,194.974C249.081,194.846 249.449,194.782 249.841,194.782C250.593,194.782 251.143,195 251.491,195.436C251.839,195.872 252.013,196.426 252.013,197.098L252.013,200.218C252.013,200.306 251.977,200.38 251.905,200.44C251.833,200.5 251.741,200.53 251.629,200.53C251.525,200.53 251.439,200.5 251.371,200.44C251.303,200.38 251.269,200.306 251.269,200.218L251.269,199.69C250.733,200.306 250.129,200.614 249.457,200.614C248.977,200.614 248.585,200.48 248.281,200.212C247.977,199.944 247.825,199.55 247.825,199.03ZM248.605,198.958C248.605,199.294 248.701,199.544 248.893,199.708C249.085,199.872 249.337,199.954 249.649,199.954C250.025,199.954 250.383,199.814 250.723,199.534C251.063,199.254 251.233,198.974 251.233,198.694L251.233,197.926L250.729,197.926C250.409,197.926 250.139,197.938 249.919,197.962C249.699,197.986 249.481,198.03 249.265,198.094C249.049,198.158 248.885,198.262 248.773,198.406C248.661,198.55 248.605,198.734 248.605,198.958Z" style="fill:rgb(0,14,32);fill-rule:nonzero;stroke:rgb(0,14,32);stroke-width:0.19px;"></path>
                <path d="M253.261,198.334L253.261,197.026C253.261,196.41 253.471,195.882 253.891,195.442C254.311,195.002 254.817,194.782 255.409,194.782C255.777,194.782 256.099,194.87 256.375,195.046C256.651,195.222 256.857,195.438 256.993,195.694L256.993,191.662C256.993,191.582 257.033,191.514 257.113,191.458C257.193,191.402 257.289,191.374 257.401,191.374C257.513,191.374 257.603,191.402 257.671,191.458C257.739,191.514 257.773,191.582 257.773,191.662L257.773,200.218C257.773,200.298 257.737,200.37 257.665,200.434C257.593,200.498 257.505,200.53 257.401,200.53C257.305,200.53 257.219,200.498 257.143,200.434C257.067,200.37 257.029,200.298 257.029,200.218L257.029,199.69C256.893,199.946 256.675,200.164 256.375,200.344C256.075,200.524 255.745,200.614 255.385,200.614C254.817,200.614 254.321,200.384 253.897,199.924C253.473,199.464 253.261,198.934 253.261,198.334ZM254.041,198.334C254.041,198.734 254.189,199.094 254.485,199.414C254.781,199.734 255.129,199.894 255.529,199.894C255.913,199.894 256.253,199.75 256.549,199.462C256.845,199.174 256.993,198.922 256.993,198.706L256.993,197.026C256.993,196.57 256.847,196.202 256.555,195.922C256.263,195.642 255.925,195.502 255.541,195.502C255.133,195.502 254.781,195.658 254.485,195.97C254.189,196.282 254.041,196.634 254.041,197.026L254.041,198.334Z" style="fill:rgb(0,14,32);fill-rule:nonzero;stroke:rgb(0,14,32);stroke-width:0.19px;"></path>
                <path d="M259.069,198.334L259.069,196.99C259.069,196.39 259.293,195.872 259.741,195.436C260.189,195 260.729,194.782 261.361,194.782C261.969,194.782 262.495,194.99 262.939,195.406C263.383,195.822 263.605,196.342 263.605,196.966C263.605,197.19 263.579,197.37 263.527,197.506C263.475,197.642 263.391,197.738 263.275,197.794C263.159,197.85 263.053,197.886 262.957,197.902C262.861,197.918 262.729,197.926 262.561,197.926L259.849,197.926L259.849,198.37C259.849,198.842 260.019,199.22 260.359,199.504C260.699,199.788 261.137,199.93 261.673,199.93C261.945,199.93 262.183,199.89 262.387,199.81C262.591,199.73 262.747,199.65 262.855,199.57C262.963,199.49 263.049,199.45 263.113,199.45C263.201,199.45 263.279,199.492 263.347,199.576C263.415,199.66 263.449,199.742 263.449,199.822C263.449,199.99 263.277,200.164 262.933,200.344C262.589,200.524 262.161,200.614 261.649,200.614C260.889,200.614 260.269,200.404 259.789,199.984C259.309,199.564 259.069,199.014 259.069,198.334ZM259.849,197.35L262.249,197.35C262.489,197.35 262.649,197.324 262.729,197.272C262.809,197.22 262.849,197.11 262.849,196.942C262.849,196.542 262.707,196.19 262.423,195.886C262.139,195.582 261.781,195.43 261.349,195.43C260.933,195.43 260.579,195.574 260.287,195.862C259.995,196.15 259.849,196.494 259.849,196.894L259.849,197.35Z" style="fill:rgb(0,14,32);fill-rule:nonzero;stroke:rgb(0,14,32);stroke-width:0.19px;"></path>
                <path d="M264.877,200.218L264.877,191.662C264.877,191.582 264.913,191.514 264.985,191.458C265.057,191.402 265.149,191.374 265.261,191.374C265.373,191.374 265.467,191.402 265.543,191.458C265.619,191.514 265.657,191.582 265.657,191.662L265.657,200.218C265.657,200.298 265.619,200.37 265.543,200.434C265.467,200.498 265.373,200.53 265.261,200.53C265.157,200.53 265.067,200.498 264.991,200.434C264.915,200.37 264.877,200.298 264.877,200.218Z" style="fill:rgb(0,14,32);fill-rule:nonzero;stroke:rgb(0,14,32);stroke-width:0.19px;"></path>
                <path d="M267.265,203.014L267.265,195.142C267.265,195.062 267.301,194.994 267.373,194.938C267.445,194.882 267.537,194.854 267.649,194.854C267.753,194.854 267.841,194.882 267.913,194.938C267.985,194.994 268.021,195.062 268.021,195.142L268.021,195.694C268.165,195.438 268.377,195.222 268.657,195.046C268.937,194.87 269.261,194.782 269.629,194.782C270.221,194.782 270.729,195.002 271.153,195.442C271.577,195.882 271.789,196.41 271.789,197.026L271.789,198.334C271.789,198.934 271.575,199.464 271.147,199.924C270.719,200.384 270.225,200.614 269.665,200.614C269.313,200.614 268.989,200.524 268.693,200.344C268.397,200.164 268.181,199.946 268.045,199.69L268.045,203.014C268.045,203.086 268.007,203.154 267.931,203.218C267.855,203.282 267.761,203.314 267.649,203.314C267.545,203.314 267.455,203.282 267.379,203.218C267.303,203.154 267.265,203.086 267.265,203.014ZM268.045,198.706C268.045,198.922 268.195,199.174 268.495,199.462C268.795,199.75 269.137,199.894 269.521,199.894C269.913,199.894 270.259,199.734 270.559,199.414C270.859,199.094 271.009,198.734 271.009,198.334L271.009,197.026C271.009,196.634 270.859,196.282 270.559,195.97C270.259,195.658 269.905,195.502 269.497,195.502C269.113,195.502 268.775,195.642 268.483,195.922C268.191,196.202 268.045,196.57 268.045,197.026L268.045,198.706Z" style="fill:rgb(0,14,32);fill-rule:nonzero;stroke:rgb(0,14,32);stroke-width:0.19px;"></path>
                <path d="M273.073,200.218L273.073,191.662C273.073,191.582 273.109,191.514 273.181,191.458C273.253,191.402 273.345,191.374 273.457,191.374C273.569,191.374 273.663,191.402 273.739,191.458C273.815,191.514 273.853,191.582 273.853,191.662L273.853,195.694C273.989,195.438 274.195,195.222 274.471,195.046C274.747,194.87 275.069,194.782 275.437,194.782C276.013,194.782 276.511,195.002 276.931,195.442C277.351,195.882 277.561,196.41 277.561,197.026L277.561,200.218C277.561,200.314 277.523,200.39 277.447,200.446C277.371,200.502 277.277,200.53 277.165,200.53C277.069,200.53 276.981,200.502 276.901,200.446C276.821,200.39 276.781,200.314 276.781,200.218L276.781,197.026C276.781,196.634 276.633,196.282 276.337,195.97C276.041,195.658 275.693,195.502 275.293,195.502C274.917,195.502 274.583,195.642 274.291,195.922C273.999,196.202 273.853,196.57 273.853,197.026L273.853,200.218C273.853,200.298 273.813,200.37 273.733,200.434C273.653,200.498 273.561,200.53 273.457,200.53C273.353,200.53 273.263,200.498 273.187,200.434C273.111,200.37 273.073,200.298 273.073,200.218Z" style="fill:rgb(0,14,32);fill-rule:nonzero;stroke:rgb(0,14,32);stroke-width:0.19px;"></path>
                <path d="M279.025,193.03C278.921,192.926 278.869,192.806 278.869,192.67C278.869,192.534 278.921,192.418 279.025,192.322C279.129,192.226 279.257,192.178 279.409,192.178C279.553,192.178 279.675,192.226 279.775,192.322C279.875,192.418 279.925,192.534 279.925,192.67C279.925,192.806 279.875,192.924 279.775,193.024C279.675,193.124 279.553,193.174 279.409,193.174C279.257,193.174 279.129,193.126 279.025,193.03ZM279.025,200.218L279.025,195.142C279.025,195.062 279.061,194.994 279.133,194.938C279.205,194.882 279.297,194.854 279.409,194.854C279.521,194.854 279.615,194.882 279.691,194.938C279.767,194.994 279.805,195.062 279.805,195.142L279.805,200.218C279.805,200.298 279.765,200.37 279.685,200.434C279.605,200.498 279.513,200.53 279.409,200.53C279.305,200.53 279.215,200.498 279.139,200.434C279.063,200.37 279.025,200.298 279.025,200.218Z" style="fill:rgb(0,14,32);fill-rule:nonzero;stroke:rgb(0,14,32);stroke-width:0.19px;"></path>
                <path d="M280.921,199.03C280.921,198.414 281.159,197.986 281.635,197.746C282.111,197.506 282.805,197.386 283.717,197.386L284.329,197.386L284.329,197.098C284.329,196.658 284.213,196.276 283.981,195.952C283.749,195.628 283.393,195.466 282.913,195.466C282.593,195.466 282.303,195.524 282.043,195.64C281.783,195.756 281.645,195.814 281.629,195.814C281.533,195.814 281.457,195.77 281.401,195.682C281.345,195.594 281.317,195.498 281.317,195.394C281.317,195.242 281.489,195.102 281.833,194.974C282.177,194.846 282.545,194.782 282.937,194.782C283.689,194.782 284.239,195 284.587,195.436C284.935,195.872 285.109,196.426 285.109,197.098L285.109,200.218C285.109,200.306 285.073,200.38 285.001,200.44C284.929,200.5 284.837,200.53 284.725,200.53C284.621,200.53 284.535,200.5 284.467,200.44C284.399,200.38 284.365,200.306 284.365,200.218L284.365,199.69C283.829,200.306 283.225,200.614 282.553,200.614C282.073,200.614 281.681,200.48 281.377,200.212C281.073,199.944 280.921,199.55 280.921,199.03ZM281.701,198.958C281.701,199.294 281.797,199.544 281.989,199.708C282.181,199.872 282.433,199.954 282.745,199.954C283.121,199.954 283.479,199.814 283.819,199.534C284.159,199.254 284.329,198.974 284.329,198.694L284.329,197.926L283.825,197.926C283.505,197.926 283.235,197.938 283.015,197.962C282.795,197.986 282.577,198.03 282.361,198.094C282.145,198.158 281.981,198.262 281.869,198.406C281.757,198.55 281.701,198.734 281.701,198.958Z" style="fill:rgb(0,14,32);fill-rule:nonzero;stroke:rgb(0,14,32);stroke-width:0.19px;"></path>
                <path d="M286.573,200.218L286.573,195.142C286.573,195.054 286.609,194.984 286.681,194.932C286.753,194.88 286.845,194.854 286.957,194.854C287.053,194.854 287.137,194.882 287.209,194.938C287.281,194.994 287.317,195.062 287.317,195.142L287.317,195.694C287.453,195.438 287.661,195.222 287.941,195.046C288.221,194.87 288.549,194.782 288.925,194.782C289.501,194.782 290.001,195.002 290.425,195.442C290.849,195.882 291.061,196.41 291.061,197.026L291.061,200.218C291.061,200.314 291.021,200.39 290.941,200.446C290.861,200.502 290.769,200.53 290.665,200.53C290.569,200.53 290.481,200.502 290.401,200.446C290.321,200.39 290.281,200.314 290.281,200.218L290.281,197.026C290.281,196.634 290.133,196.282 289.837,195.97C289.541,195.658 289.189,195.502 288.781,195.502C288.405,195.502 288.073,195.642 287.785,195.922C287.497,196.202 287.353,196.57 287.353,197.026L287.353,200.218C287.353,200.298 287.313,200.37 287.233,200.434C287.153,200.498 287.061,200.53 286.957,200.53C286.845,200.53 286.753,200.498 286.681,200.434C286.609,200.37 286.573,200.298 286.573,200.218Z" style="fill:rgb(0,14,32);fill-rule:nonzero;stroke:rgb(0,14,32);stroke-width:0.19px;"></path>
                <path d="M292.165,199.75C292.165,199.67 292.193,199.59 292.249,199.51C292.305,199.43 292.369,199.39 292.441,199.39C292.497,199.39 292.585,199.436 292.705,199.528C292.825,199.62 292.997,199.714 293.221,199.81C293.445,199.906 293.713,199.954 294.025,199.954C294.449,199.954 294.761,199.874 294.961,199.714C295.161,199.554 295.261,199.35 295.261,199.102C295.261,198.814 295.159,198.584 294.955,198.412C294.751,198.24 294.505,198.114 294.217,198.034C293.929,197.954 293.639,197.866 293.347,197.77C293.055,197.674 292.807,197.516 292.603,197.296C292.399,197.076 292.297,196.782 292.297,196.414C292.297,195.974 292.455,195.592 292.771,195.268C293.087,194.944 293.561,194.782 294.193,194.782C294.585,194.782 294.951,194.844 295.291,194.968C295.631,195.092 295.801,195.226 295.801,195.37C295.801,195.45 295.769,195.538 295.705,195.634C295.641,195.73 295.565,195.778 295.477,195.778C295.453,195.778 295.305,195.722 295.033,195.61C294.761,195.498 294.485,195.442 294.205,195.442C293.805,195.442 293.505,195.538 293.305,195.73C293.105,195.922 293.005,196.138 293.005,196.378C293.005,196.626 293.107,196.822 293.311,196.966C293.515,197.11 293.763,197.22 294.055,197.296C294.347,197.372 294.639,197.46 294.931,197.56C295.223,197.66 295.471,197.836 295.675,198.088C295.879,198.34 295.981,198.666 295.981,199.066C295.981,199.546 295.811,199.924 295.471,200.2C295.131,200.476 294.657,200.614 294.049,200.614C293.521,200.614 293.075,200.52 292.711,200.332C292.347,200.144 292.165,199.95 292.165,199.75Z" style="fill:rgb(0,14,32);fill-rule:nonzero;stroke:rgb(0,14,32);stroke-width:0.19px;"></path>
            </g>
            <g id="Layer-1" serif:id="Layer 1"></g>
            <g transform="matrix(0.103686,0,0,0.323321,148.756,79.0589)">
                <path d="M99.385,109.195C98.21,108.195 93.213,105.462 88.059,104.515C78.278,102.711 52.968,109.814 52.968,109.814L52.968,87.531C52.968,82.815 56.34,79.195 61.698,79.195L82.501,79.195C82.563,79.195 83.885,79.194 83.885,79.194L83.968,76.847C83.968,71.267 87.314,67.195 93.03,67.195L116.927,67.195C122.64,67.195 125.968,71.267 125.968,76.847L126.01,79.195L145.964,79.195C151.104,79.195 154.968,82.815 154.968,87.531L154.846,109.789C154.846,109.789 128.659,102.711 118.874,104.515C113.723,105.462 108.8,108.195 107.626,109.195L99.385,109.195ZM70.542,52.707C76.69,52.707 81.673,57.688 81.673,63.836C81.673,69.982 76.69,74.965 70.542,74.965C64.396,74.965 59.415,69.982 59.415,63.836C59.415,57.688 64.396,52.707 70.542,52.707M104.771,38.147C111.538,38.147 117.022,43.632 117.022,50.399C117.022,57.164 111.538,62.648 104.771,62.648C98.007,62.648 92.521,57.164 92.521,50.399C92.521,43.632 98.007,38.147 104.771,38.147M137.571,52.707C143.718,52.707 148.702,57.688 148.702,63.836C148.702,69.982 143.718,74.965 137.571,74.965C131.425,74.965 126.442,69.982 126.442,63.836C126.442,57.688 131.425,52.707 137.571,52.707M127.375,158.011C115.002,159.211 106.968,167.859 106.968,167.859L106.968,117.125C106.968,117.125 112.856,113.145 118.752,112.06C128.535,110.259 154.964,117.125 154.964,117.125L155.255,117.531L179.856,153.928C189.426,139.469 195.005,122.14 195.005,103.504C195.005,52.967 154.038,12.001 103.502,12.001C52.965,12.001 11.997,52.967 11.997,103.504C11.997,122.131 17.57,139.455 27.128,153.908L52.03,117.151L52.077,117.125C52.077,117.125 77.939,110.259 87.721,112.06C93.615,113.145 98.968,117.125 98.968,117.125L98.968,167.859C98.968,167.859 91.478,159.211 79.106,158.011C68.148,156.949 47.197,159.988 33.198,162.347C49.985,182.314 75.26,195.01 103.386,195.01C131.513,195.01 156.694,182.316 173.478,162.351C159.497,159.992 138.34,156.948 127.375,158.011" style="fill:rgb(0,14,32);fill-rule:nonzero;"></path>
            </g>
            <g transform="matrix(0.10579,0,0,0.329881,148.538,78.3801)">
                <path d="M103.505,6.001C49.74,6.001 6,49.741 6,103.504C6,157.27 49.74,201.01 103.505,201.01C157.269,201.01 201.011,157.27 201.011,103.504C201.011,49.741 157.269,6.001 103.505,6.001M103.505,207.01C89.532,207.01 75.978,204.274 63.215,198.876C50.89,193.663 39.821,186.201 30.316,176.694C20.812,167.19 13.348,156.122 8.134,143.794C2.736,131.032 0,117.476 0,103.504C0,89.534 2.736,75.978 8.134,63.215C13.348,50.89 20.812,39.821 30.316,30.316C39.821,20.812 50.89,13.349 63.215,8.136C75.978,2.737 89.532,0 103.505,0C117.477,0 131.032,2.737 143.795,8.136C156.12,13.349 167.19,20.812 176.694,30.316C186.198,39.821 193.662,50.89 198.874,63.215C204.273,75.978 207.011,89.534 207.011,103.504C207.011,117.476 204.273,131.032 198.874,143.794C193.662,156.122 186.198,167.19 176.694,176.694C167.19,186.201 156.12,193.663 143.795,198.876C131.032,204.274 117.477,207.01 103.505,207.01" style="fill:rgb(0,14,32);fill-rule:nonzero;"></path>
            </g>
            <g transform="matrix(0.10579,0,0,0.329881,148.538,78.3801)">
                <path d="M102.184,207.98C88.544,207.813 75.314,205.056 62.834,199.777C50.392,194.515 39.219,186.982 29.624,177.386C20.03,167.792 12.496,156.619 7.233,144.175C1.783,131.292 -0.979,117.608 -0.979,103.504C-0.979,89.401 1.783,75.717 7.233,62.833C12.496,50.392 20.03,39.218 29.624,29.624C39.219,20.03 50.392,12.497 62.834,7.234C75.717,1.784 89.4,-0.979 103.505,-0.979C117.609,-0.979 131.292,1.784 144.176,7.234C156.618,12.497 167.792,20.03 177.386,29.624C186.98,39.218 194.514,50.392 199.775,62.833C205.225,75.717 207.99,89.401 207.99,103.504C207.99,117.608 205.225,131.292 199.775,144.175C194.514,156.619 186.98,167.792 177.386,177.386C167.792,186.982 156.618,194.515 144.176,199.777C131.292,205.226 117.609,207.988 103.505,207.988L102.844,207.986L102.184,207.98ZM103.505,206.031C117.345,206.031 130.771,203.321 143.414,197.974C155.622,192.811 166.588,185.419 176.002,176.002C185.416,166.587 192.81,155.624 197.973,143.412C203.32,130.771 206.032,117.343 206.032,103.504C206.032,89.666 203.32,76.238 197.973,63.596C192.81,51.387 185.416,40.423 176.002,31.008C166.588,21.593 155.622,14.201 143.414,9.037C130.771,3.689 117.345,0.978 103.505,0.978C89.664,0.978 76.238,3.689 63.596,9.037C51.388,14.201 40.423,21.594 31.008,31.008C21.594,40.423 14.2,51.387 9.035,63.596C3.688,76.238 0.979,89.666 0.979,103.504C0.979,117.343 3.688,130.771 9.035,143.412C14.2,155.624 21.594,166.587 31.008,176.002C40.423,185.419 51.388,192.811 63.596,197.974C76.238,203.321 89.664,206.031 103.505,206.031ZM102.882,6.981C49.942,7.317 6.979,50.488 6.979,103.504C6.979,156.73 50.28,200.031 103.505,200.031C156.729,200.031 200.032,156.73 200.032,103.504C200.032,50.488 157.066,7.317 104.128,6.981L103.505,6.979L102.882,6.981ZM104.776,5.03C158.495,5.712 201.99,49.625 201.99,103.504C201.99,157.809 157.809,201.988 103.505,201.988C49.2,201.988 5.021,157.809 5.021,103.504C5.021,49.201 49.2,5.022 103.505,5.022L104.141,5.024L104.776,5.03Z"></path>
            </g>
        </g>
    </g>
</svg> 